# xmcd
#
# Track frame offsets:
#	150
#	4588
#	28352
#	50418
#	70120
#	94554
#	120567
#	138353
#	158814
#	165548
#	179011
#	197709
#	216139
#	250587
#	270925
#
# Disc length: 4000 seconds
#
# Revision: 0
# Processed by: cddbd v1.5.1PL2 Copyright (c) Steve Scherf et al.
# Submitted via: EasyCDDAExtractor 9.0.0.1
#
DISCID=c60f9e0f
DTITLE=Deep Purple - Festival Area Wiesen 08-07-06 Disc 1
DYEAR=2006
DGENRE=Hard Rock
TTITLE0=Intro
TTITLE1=Pictures Of Home
TTITLE2=Things I Never Said
TTITLE3=Hush
TTITLE4=Strange Kind Of Woman
TTITLE5=Rapture Of The Deep
TTITLE6=Fireball
TTITLE7=Wrong Man 
TTITLE8=Steve Morse Solo 
TTITLE9=Well Dressed Guitar
TTITLE10=Kiss Tomorrow Goodbye
TTITLE11=When A Blind Man Cries
TTITLE12=Lazy
TTITLE13=Don Airey Solo
TTITLE14=Perfect Strangers
EXTD=
EXTT0=
EXTT1=
EXTT2=
EXTT3=
EXTT4=
EXTT5=
EXTT6=
EXTT7=
EXTT8=
EXTT9=
EXTT10=
EXTT11=
EXTT12=
EXTT13=
EXTT14=
PLAYORDER=
